<?xml version="1.0" standalone="no"?>
<!DOCTYPE svg PUBLIC "-//W3C//DTD SVG 20010904//EN"
 "http://www.w3.org/TR/2001/REC-SVG-20010904/DTD/svg10.dtd">
<svg version="1.0" xmlns="http://www.w3.org/2000/svg"
 width="900.000000pt" height="900.000000pt" viewBox="0 0 900.000000 900.000000"
 preserveAspectRatio="xMidYMid meet">
<metadata>
Created by potrace 1.10, written by Peter Selinger 2001-2011
</metadata>
<g transform="translate(0.000000,900.000000) scale(0.100000,-0.100000)"
fill="#ffffff" stroke="none">
<path d="M4189 8916 c-2 -2 -56 -9 -119 -15 -63 -6 -135 -16 -160 -21 -25 -5
-74 -14 -110 -20 -143 -23 -173 -29 -223 -40 -29 -6 -74 -18 -102 -25 -27 -8
-77 -21 -110 -31 -175 -48 -359 -113 -525 -185 -185 -81 -401 -190 -510 -259
-8 -5 -37 -21 -65 -36 -27 -14 -64 -37 -82 -50 -17 -13 -34 -24 -37 -24 -15 0
-310 -209 -387 -274 -266 -226 -432 -388 -620 -606 -86 -99 -252 -322 -304
-408 -6 -9 -28 -44 -50 -77 -47 -71 -62 -95 -71 -115 -4 -8 -19 -33 -33 -55
-42 -68 -166 -315 -206 -410 -20 -49 -43 -103 -50 -120 -7 -16 -20 -52 -30
-80 -9 -27 -21 -59 -26 -70 -9 -22 -37 -109 -64 -200 -10 -33 -22 -71 -26 -85
-5 -14 -13 -45 -19 -70 -5 -25 -17 -74 -25 -110 -22 -90 -45 -219 -56 -320 -5
-47 -14 -114 -20 -150 -6 -36 -13 -178 -16 -315 -5 -247 0 -338 32 -600 26
-212 33 -262 43 -301 6 -22 18 -75 27 -119 28 -137 92 -367 119 -430 8 -17 17
-45 20 -62 4 -18 12 -35 17 -38 5 -4 9 -14 9 -24 0 -10 13 -49 29 -87 16 -38
39 -94 51 -124 76 -186 262 -524 408 -740 190 -281 323 -441 577 -698 104
-106 191 -194 193 -196 6 -7 -49 -275 -75 -366 -41 -145 -137 -361 -211 -480
-88 -139 -297 -360 -410 -432 l-66 -43 55 -3 c30 -2 81 2 114 8 70 14 246 65
293 86 18 8 39 14 47 14 8 0 29 6 47 14 18 8 69 28 113 46 44 17 93 38 108 46
16 8 33 14 39 14 9 0 371 177 408 200 8 5 56 32 105 61 85 50 215 131 296 185
19 13 40 24 47 24 6 0 50 -18 97 -40 47 -22 87 -40 89 -40 3 0 34 -13 69 -30
36 -16 71 -30 79 -30 8 0 18 -4 23 -8 13 -11 108 -46 250 -93 171 -56 326 -95
490 -123 50 -9 119 -21 155 -27 36 -6 106 -15 155 -20 50 -5 124 -13 165 -18
120 -16 547 -13 695 4 256 29 344 44 570 91 225 47 558 158 760 254 360 170
625 328 890 530 302 229 609 540 857 868 53 69 258 376 258 386 0 3 14 28 30
55 76 123 270 507 270 534 0 9 4 18 10 22 5 3 14 20 19 38 5 18 19 57 31 87
147 380 241 813 271 1255 12 165 5 597 -11 673 -5 26 -14 88 -20 137 -11 95
-30 213 -49 305 -12 53 -23 95 -56 210 -9 30 -23 80 -32 110 -8 30 -22 70 -29
88 -8 18 -14 37 -14 43 0 6 -6 25 -14 42 -15 35 -40 100 -63 162 -30 81 -44
113 -127 285 -31 63 -69 140 -87 170 -17 30 -42 75 -56 100 -75 132 -289 436
-399 569 -176 211 -410 447 -594 599 -69 56 -143 117 -165 136 -22 18 -53 41
-70 51 -16 11 -56 39 -87 62 -31 24 -59 43 -62 43 -2 0 -34 20 -70 45 -37 25
-68 45 -70 45 -2 0 -60 33 -128 73 -67 40 -154 88 -193 106 -38 19 -86 42
-106 52 -45 23 -266 119 -299 129 -14 5 -50 18 -80 30 -94 36 -337 113 -390
124 -14 2 -61 14 -105 26 -85 22 -155 35 -275 51 -41 5 -88 14 -105 20 -16 5
-101 13 -188 16 -87 3 -160 10 -163 15 -5 8 -507 12 -515 4z m606 -516 c72 -6
153 -15 180 -20 28 -5 73 -12 100 -15 119 -15 447 -100 543 -141 18 -8 39 -14
47 -14 8 0 31 -7 52 -16 68 -30 97 -42 188 -79 118 -48 335 -157 410 -205 17
-11 37 -23 45 -26 25 -12 150 -95 243 -162 97 -71 99 -79 20 -100 -127 -35
-162 -46 -213 -62 -31 -10 -67 -23 -80 -28 -14 -6 -50 -20 -80 -32 -301 -120
-612 -348 -800 -586 -140 -178 -262 -420 -313 -619 -39 -150 -42 -182 -42
-400 0 -251 14 -334 86 -515 37 -95 36 -109 -17 -233 -26 -62 -51 -116 -55
-122 -4 -5 -33 -71 -64 -145 -52 -121 -77 -179 -120 -275 -13 -31 -28 -65 -63
-145 -11 -25 -31 -70 -45 -100 -108 -245 -124 -317 -93 -422 27 -87 88 -157
173 -199 44 -22 64 -24 243 -29 l195 -5 6 -485 c3 -278 10 -502 16 -525 33
-126 134 -210 283 -234 39 -7 136 -9 240 -5 96 3 238 1 315 -3 123 -8 147 -13
196 -37 155 -77 273 -219 329 -397 15 -49 21 -105 26 -239 3 -96 2 -184 -2
-196 -10 -24 -100 -100 -187 -160 -116 -78 -202 -134 -217 -141 -8 -4 -46 -25
-85 -47 -87 -51 -278 -145 -365 -181 -36 -14 -74 -30 -85 -34 -11 -5 -39 -16
-62 -25 -24 -9 -60 -23 -80 -31 -99 -38 -303 -95 -428 -120 -44 -9 -100 -21
-125 -26 -25 -5 -81 -14 -125 -19 -44 -5 -109 -14 -145 -20 -107 -16 -626 -12
-765 5 -226 30 -440 73 -595 121 -170 53 -315 104 -347 122 -12 7 -26 12 -32
12 -20 0 -294 132 -371 179 -19 11 -42 24 -50 28 -8 4 -36 20 -62 36 -27 16
-52 27 -57 25 -5 -1 -34 -26 -63 -53 -138 -130 -238 -216 -245 -212 -5 3 -10
212 -11 464 -3 525 -4 517 76 690 28 62 157 183 237 223 l70 34 350 4 c366 4
387 6 473 52 80 42 125 101 146 190 13 53 16 149 16 525 0 253 4 465 8 472 5
8 64 13 192 15 181 3 186 4 244 32 96 47 146 109 180 227 13 44 15 65 6 97 -5
23 -15 60 -20 82 -6 23 -14 48 -19 58 -4 9 -15 33 -23 52 -8 19 -24 55 -36 80
-26 58 -69 156 -86 195 -17 40 -37 85 -76 170 -17 39 -37 84 -44 100 -8 17
-27 60 -45 97 -17 37 -31 70 -31 73 0 3 -13 33 -28 67 -97 213 -105 246 -78
310 8 18 21 49 30 70 9 20 16 44 16 53 0 9 5 25 11 36 42 80 65 493 34 644
-28 143 -45 201 -95 325 -66 163 -175 353 -242 422 -10 10 -18 22 -18 27 0 15
-253 264 -301 296 -24 16 -60 41 -79 56 -19 15 -51 35 -70 46 -19 10 -53 30
-75 44 -49 32 -255 132 -310 152 -146 52 -261 87 -284 87 -28 0 -95 27 -99 40
-2 6 6 19 19 28 222 163 442 293 679 400 125 57 163 72 268 113 54 21 236 79
337 107 360 100 807 138 1220 102z m-2726 -1261 c123 -15 333 -68 426 -109 37
-16 190 -91 210 -103 134 -80 293 -221 386 -342 98 -128 179 -291 214 -430 21
-89 31 -299 16 -390 -24 -153 -46 -222 -121 -380 l-50 -104 16 -38 c9 -21 34
-75 55 -121 21 -46 39 -85 39 -88 0 -2 14 -33 30 -69 17 -36 44 -94 60 -130
17 -36 30 -67 30 -70 0 -2 15 -37 34 -77 55 -119 97 -209 123 -268 13 -30 38
-83 54 -117 16 -35 29 -67 29 -72 0 -19 -25 -24 -136 -27 -63 -2 -134 -8 -160
-14 -64 -15 -148 -71 -181 -122 -57 -90 -64 -115 -66 -246 -2 -96 -6 -125 -17
-132 -9 -6 -452 -9 -1134 -7 l-1119 2 -7 25 c-4 14 -13 44 -20 68 -9 29 -10
46 -3 53 7 7 228 10 677 9 729 -1 739 0 803 58 39 35 68 97 67 142 -1 40 -32
106 -60 131 -58 51 -30 49 -814 49 l-731 0 -19 44 c-13 30 -19 74 -22 142 l-3
99 405 8 c359 8 410 11 445 27 130 59 153 220 43 304 -71 53 -92 56 -504 56
-343 0 -382 2 -388 16 -13 34 15 234 37 262 7 9 192 12 861 12 905 0 917 1
983 48 37 26 73 99 73 146 0 39 -32 113 -59 134 -9 7 -33 21 -53 32 -36 19
-60 20 -873 20 -751 0 -836 2 -842 16 -15 39 127 435 218 607 6 10 28 53 50
95 22 42 49 91 60 107 10 17 22 37 26 45 13 29 187 285 247 365 90 120 132
170 225 267 l84 88 136 -6 c75 -3 174 -10 220 -15z m5271 -76 c102 -108 230
-272 345 -444 41 -61 75 -113 75 -115 0 -1 12 -22 28 -46 62 -97 112 -192 112
-213 0 -13 -84 -15 -777 -15 l-778 -1 -37 -22 c-86 -53 -118 -146 -82 -233 20
-48 67 -91 113 -104 23 -6 351 -10 872 -10 797 0 837 -1 852 -18 22 -25 89
-217 85 -245 l-3 -22 -535 -5 c-602 -6 -572 -2 -631 -83 -25 -34 -29 -49 -29
-102 0 -52 4 -68 29 -101 68 -94 72 -95 704 -94 293 0 538 1 545 0 7 0 17 -11
22 -25 15 -39 33 -246 22 -257 -5 -5 -299 -9 -738 -9 -785 1 -783 1 -848 -51
-96 -77 -85 -223 23 -296 l46 -32 750 0 c413 0 756 -4 763 -9 20 -12 2 -268
-19 -282 -8 -5 -374 -9 -857 -9 -793 0 -844 -1 -876 -18 -59 -32 -90 -72 -101
-136 -15 -77 48 -182 123 -208 28 -9 236 -14 837 -18 l800 -5 3 -23 c3 -20
-11 -84 -51 -232 -32 -117 -88 -272 -143 -395 -52 -117 -65 -145 -78 -157 -11
-12 -160 -14 -912 -16 -495 0 -939 -4 -989 -7 -67 -5 -94 -3 -107 7 -15 12
-17 55 -20 478 l-4 465 -28 54 c-38 72 -90 128 -147 156 -50 26 -165 43 -282
43 -81 -1 -95 9 -74 49 14 26 23 48 60 133 15 35 26 60 70 160 14 30 35 78 46
105 12 28 28 64 36 80 8 17 23 50 33 75 20 45 62 139 87 195 8 17 23 50 34 75
11 25 32 72 47 105 33 74 35 137 6 185 -35 59 -88 192 -113 281 -19 73 -22
107 -22 259 0 217 12 269 101 460 153 324 490 601 861 705 25 7 73 21 106 30
101 30 283 53 421 54 l132 1 92 -97z m-4282 -3772 c10 -6 15 -42 17 -130 3
-112 2 -124 -17 -143 -19 -19 -28 -20 -122 -13 -55 3 -495 7 -976 7 -487 0
-883 5 -892 9 -10 5 -39 55 -66 112 -62 129 -68 147 -51 158 18 11 2090 11
2107 0z m-1058 -665 c0 -13 -6 -26 -14 -29 -22 -9 -129 -165 -162 -237 -32
-70 -57 -145 -73 -225 -19 -96 -22 -106 -30 -103 -13 5 -188 212 -261 307 -94
124 -190 273 -190 293 0 17 20 18 365 18 l365 0 0 -24z m5696 10 c13 -34 -389
-570 -443 -590 -22 -9 -22 -8 -33 70 -14 101 -33 160 -78 246 -43 82 -119 187
-164 228 -16 13 -28 32 -28 42 0 17 22 18 370 18 308 0 372 -2 376 -14z"/>
<path d="M4395 2704 c-51 -26 -81 -62 -101 -120 -18 -53 -18 -56 0 -107 41
-118 140 -165 248 -118 46 19 103 76 119 118 30 79 -19 182 -108 227 -41 20
-119 21 -158 0z"/>
<path d="M3385 1757 c-64 -30 -90 -95 -68 -169 37 -128 200 -134 255 -10 25
56 18 97 -25 146 -27 31 -40 38 -82 42 -31 3 -61 -1 -80 -9z"/>
<path d="M5440 1757 c-62 -31 -89 -127 -55 -195 36 -72 145 -96 205 -46 33 28
60 82 60 120 0 37 -29 88 -64 112 -37 25 -106 29 -146 9z"/>
<path d="M4403 1620 c-47 -29 -67 -65 -67 -124 0 -63 23 -104 74 -134 48 -27
68 -28 122 -1 64 31 83 62 83 136 0 52 -4 66 -25 88 -53 57 -128 71 -187 35z"/>
</g>
</svg>
